<svg xmlns="http://www.w3.org/2000/svg" viewBox="0 0 1006.72 542.94"><defs><style>.cls-1{fill:none;stroke:#000;stroke-miterlimit:10;stroke-width:5px;}</style></defs><g id="Layer_2" data-name="Layer 2"><g id="Layer_1-2" data-name="Layer 1"><path class="cls-1" d="M1002.93,540.34h-6.26q-85.17,0-170.34.1c-4.29,0-6.47-1.35-8.36-5.15-13-26.19-26.23-52.27-39.41-78.37-.59-1.17-1.38-2.23-2.39-3.86-5,9.73-9.73,19-14.43,28.3-9.36,18.54-18.61,37.13-28.15,55.58a7.15,7.15,0,0,1-5.22,3.26c-58.94.16-117.89.11-176.83.21-3.28,0-4.57-1.46-5.9-4.11q-20.11-40.11-40.48-80.07a29.38,29.38,0,0,0-2-2.94c-5,9.78-9.69,19.08-14.38,28.4-9.28,18.4-18.46,36.85-27.91,55.16a7.08,7.08,0,0,1-5.16,3.34c-59.11.17-118.22.12-177.33.22-3.33,0-4.65-1.55-5.94-4.12Q252.79,497.07,233,457.91c-.67-1.32-1.46-2.58-2.63-4.66-2.88,5.47-5.54,10.36-8.05,15.31q-17.21,34-34.31,68.11c-1.24,2.48-2.67,3.74-5.69,3.73q-87.42-.14-174.83-.08c-1,0-1.92-.15-3.68-.29,3.11-6.39,5.89-12.31,8.85-18.15q25.89-51.13,51.85-102.25Q100.93,347.8,137.32,276c1.6-3.14,1-5.55-.44-8.38q-23-45.1-45.77-90.29-26-51.37-51.83-102.81Q21.66,39.56,4,4.62a13.1,13.1,0,0,1-.54-2h5q86.16,0,172.33-.12c4,0,5.88,1.36,7.54,4.69q32,63.71,64.12,127.31,34.41,68.1,68.93,136.13Q343.24,313.78,365,357c.44.87,1,1.7,1.75,3.1,5.51-10.78,10.84-21.09,16.06-31.44q20.22-40,40.36-80.13,27.07-53.66,54.13-107.3c1.25-2.47,2.6-3.69,5.64-3.68q88.17.17,176.34.09c.66,0,1.32.09,2.86.21-3.34,6.8-6.45,13.31-9.7,19.74q-28.1,55.63-56.16,111.3c-.76,1.51-1.09,4-.38,5.39,14,28,28.08,55.83,42.18,83.71.3.59.73,1.11,1.48,2.23,3.68-7.2,7.21-14.05,10.68-20.92L714.47,212c12-23.75,23.92-47.51,36-71.19.73-1.42,2.83-3,4.3-3q89.41-.16,178.82,0a8.74,8.74,0,0,1,1.18.28c-.63,1.52-1.14,3-1.84,4.36Q901.71,204.22,870.32,266c-2.21,4.32-2,7.65.12,11.89q37.83,74.18,75.33,148.52,27.24,53.81,54.46,107.61C1001.12,535.81,1001.79,537.67,1002.93,540.34Z"/></g></g></svg>